<?xml version="1.0" standalone="no"?>
<!DOCTYPE svg PUBLIC "-//W3C//DTD SVG 20010904//EN"
 "http://www.w3.org/TR/2001/REC-SVG-20010904/DTD/svg10.dtd">
<svg version="1.0" xmlns="http://www.w3.org/2000/svg"
 width="112.000000pt" height="112.000000pt" viewBox="0 0 112.000000 112.000000"
 preserveAspectRatio="xMidYMid meet">
<metadata>
Created by potrace 1.14, written by Peter Selinger 2001-2017
</metadata>
<g transform="translate(0.000000,112.000000) scale(0.100000,-0.100000)"
fill="#000000" stroke="none">
<path d="M428 1029 c-21 -5 -56 -21 -78 -35 -50 -33 -95 -123 -105 -209 -4
-33 -7 -60 -8 -61 -21 -13 -108 -62 -148 -82 -84 -43 -108 -113 -51 -150 26
-17 42 -20 130 -21 31 -1 51 -5 47 -10 -3 -6 -6 -37 -6 -70 -2 -113 77 -219
211 -283 149 -72 326 -21 404 116 40 68 57 180 41 254 -3 12 -2 22 2 23 80 8
197 53 229 88 31 33 32 81 1 116 -18 22 -32 27 -85 30 -35 3 -82 10 -105 16
-23 6 -44 11 -47 11 -19 0 -41 25 -69 80 -41 79 -88 128 -154 161 -57 29 -147
40 -209 26z"/>
</g>
</svg>
